<svg xmlns="http://www.w3.org/2000/svg" viewBox="0 0 400 132" preserveAspectRatio="xMidYMid slice">
  <defs>
    <linearGradient id="bg" x1="0" y1="0" x2="1" y2="1">
      <stop offset="0" stop-color="#1C2226"/>
      <stop offset="1" stop-color="#223138"/>
    </linearGradient>
  </defs>
  <rect width="400" height="132" fill="url(#bg)"/>
  <circle cx="80" cy="112" r="70" fill="none" stroke="#0FA0A4" stroke-opacity=".12" stroke-width="1"/>
  <circle cx="80" cy="112" r="45" fill="none" stroke="#0FA0A4" stroke-opacity=".12" stroke-width="1"/>
  <g transform="translate(70,14)" fill="none" stroke-linecap="round" stroke-linejoin="round">
    <rect x="0" y="0" width="48" height="100" rx="5" stroke="#E7ECEE" stroke-width="2"/>
    <line x1="8" y1="12" x2="40" y2="12" stroke="#0FA0A4" stroke-width="2.5"/>
    <line x1="8" y1="24" x2="28" y2="24" stroke="#5B646B" stroke-width="2.5"/>
    <circle cx="36" cy="24" r="2.5" fill="#E1A23A" stroke="none"/>
    <rect x="10" y="34" width="28" height="16" rx="2" stroke="#5B646B" stroke-width="2"/>
    <line x1="8" y1="58" x2="40" y2="58" stroke="#0FA0A4" stroke-width="2.5"/>
    <line x1="8" y1="70" x2="28" y2="70" stroke="#5B646B" stroke-width="2.5"/>
    <circle cx="36" cy="70" r="2.5" fill="#E1A23A" stroke="none"/>
    <line x1="8" y1="82" x2="40" y2="82" stroke="#0FA0A4" stroke-width="2.5"/>
    <rect x="68" y="20" width="34" height="56" rx="4" stroke="#0FA0A4" stroke-width="2.5"/>
    <path d="M118 38 h20 M118 58 h20 M122 48 h16" stroke="#E7ECEE" stroke-width="2"/>
    <circle cx="85" cy="76" r="3" fill="#E1A23A" stroke="none"/>
  </g>
</svg>
